<svg xmlns="http://www.w3.org/2000/svg" viewBox="0 0 32 32"><circle cx="16" cy="16" r="16" fill="#8247E5"/><path d="M21.2 12.6c-.4-.2-.9-.2-1.2 0l-2.8 1.7-1.9 1.1-2.8 1.7c-.4.2-.9.2-1.2 0l-2.2-1.3c-.4-.2-.6-.6-.6-1.1v-2.5c0-.4.2-.9.6-1.1l2.2-1.3c.4-.2.9-.2 1.2 0l2.2 1.3c.4.2.6.6.6 1.1v1.7l1.9-1.1v-1.7c0-.4-.2-.9-.6-1.1l-4-2.3c-.4-.2-.9-.2-1.2 0l-4.1 2.4c-.4.2-.6.6-.6 1v4.6c0 .4.2.9.6 1.1l4.1 2.4c.4.2.9.2 1.2 0l2.8-1.6 1.9-1.1 2.8-1.6c.4-.2.9-.2 1.2 0l2.2 1.3c.4.2.6.6.6 1.1v2.5c0 .4-.2.9-.6 1.1l-2.1 1.3c-.4.2-.9.2-1.2 0l-2.2-1.3c-.4-.2-.6-.6-.6-1.1v-1.7l-1.9 1.1v1.7c0 .4.2.9.6 1.1l4.1 2.4c.4.2.9.2 1.2 0l4.1-2.4c.4-.2.6-.6.6-1v-4.6c0-.4-.2-.9-.6-1.1l-4.2-2.5z" fill="#fff"/></svg>
